<?xml version="1.0" standalone="no"?><!DOCTYPE svg PUBLIC "-//W3C//DTD SVG 1.1//EN" "http://www.w3.org/Graphics/SVG/1.1/DTD/svg11.dtd"><svg t="1750060923396" class="icon" viewBox="0 0 1024 1024" version="1.1" xmlns="http://www.w3.org/2000/svg" p-id="9063" xmlns:xlink="http://www.w3.org/1999/xlink" width="200" height="200"><path d="M934.4 53.333333c-29.866667-23.466667-68.266667-32-104.533333-23.466666L334.933333 145.066667c-55.466667 12.8-96 61.866667-96 119.466666v443.733334c-14.933333-6.4-32-8.533333-49.066666-8.533334-81.066667 0-147.2 66.133333-147.2 147.2s66.133333 147.2 147.2 147.2c81.066667 0 147.2-66.133333 147.2-147.2V492.8l544-125.866667v341.333334c-14.933333-6.4-32-8.533333-49.066667-8.533334-81.066667 0-147.2 66.133333-147.2 147.2 0 81.066667 66.133333 147.2 147.2 147.2 78.933333 0 142.933333-59.733333 147.2-136.533333 0-4.266667 2.133333-6.4 2.133333-10.666667V151.466667c0-38.4-17.066667-74.666667-46.933333-98.133334zM339.2 390.4v-125.866667c0-10.666667 8.533333-21.333333 19.2-23.466666L851.2 128c10.666667-2.133333 17.066667 2.133333 21.333333 4.266667 4.266667 2.133333 8.533333 8.533333 8.533334 19.2v115.2l-541.866667 123.733333z" fill="#80B8F8" p-id="9064"></path></svg>